<svg xmlns="http://www.w3.org/2000/svg" version="1.1" id="Layer_1" x="0" y="0" viewBox="0 0 1442 371" style="enable-background:new 0 0 1442 371" xml:space="preserve"><style>.st0,.st1{fill-rule:evenodd;clip-rule:evenodd;fill:#ca3438}.st1{fill:#ed3237}</style><g id="Camada_x0020_1"><g id="_1596652451568"><path class="st0" d="M0 0h100l144 355h-99zM290 0h100l144 355h-99z"/><path class="st1" d="M389 0h-99L145 355h100zM680 0H580L435 355h100z"/><path d="M917 268c0 31-11 55-33 73-20 16-46 24-78 24h-72c-10 0-19-4-28-10-11-8-16-19-16-33V43c0-13 4-23 12-31 8-7 19-11 32-11h60c29 0 53 8 73 25 21 17 31 40 31 69 0 39-20 65-61 79 53 13 80 44 80 94zM875 97c0-23-8-41-23-55-10-9-20-15-29-18-5-2-15-2-29-2h-62c-14 1-20 9-20 21v125h75c24 0 44-5 61-17 18-13 27-31 27-54zm19 171c0-54-34-80-101-80h-81v135c0 12 6 20 20 22h69c62 0 93-26 93-77zm281-28c0 38-10 69-29 93-21 26-50 38-88 38-39 0-68-12-89-38-19-23-29-54-29-93V10h22v221c0 79 32 119 96 119 63 0 95-40 95-119V10h22v230zm267-230-111 179v176h-21V189L1198 10h23l99 159 100-159h22z" style="fill:#f58634"/></g></g></svg>